# Blender 4.3.0
# www.blender.org
mtllib dragon.mtl
o body
v -1.003033 -0.983160 -0.910590
v -1.003033 1.016840 -0.910590
v -0.560246 -0.540373 -2.910590
v -0.560246 0.574053 -2.910590
v 0.996967 -0.983160 -0.910590
v 0.996967 1.016840 -0.910590
v 0.554181 -0.540373 -2.910590
v 0.554181 0.574053 -2.910590
v -1.003033 -0.983160 -0.910590
v -1.003033 1.016840 -0.910590
v 0.996967 1.016840 -0.910590
v 0.996967 -0.983160 -0.910590
v 0.996967 -0.983160 -0.910590
v 0.996967 1.016840 -0.910590
v -1.003033 1.016840 -0.910590
v -1.003033 -0.983160 -0.910590
v -0.571598 0.753364 -0.126267
v -0.319845 0.501611 -1.263397
v 0.313780 0.501611 -1.263397
v 0.565533 0.753364 -0.126267
v 0.565533 0.753364 -0.126267
v 0.565533 -0.383767 -0.126267
v -0.571598 -0.383767 -0.126267
v -0.571598 0.753364 -0.126267
vn -0.9764 -0.0000 -0.2162
vn -0.0000 -0.0000 -1.0000
vn 0.9764 -0.0000 -0.2162
vn -0.0000 -0.9479 -0.3184
vn -0.0000 -0.9764 -0.2162
vn -0.0000 0.9479 0.3184
vn -0.0000 1.0000 -0.0000
vn -0.0000 -0.0000 1.0000
vn -0.0000 0.9764 -0.2162
vn 0.8762 -0.0000 0.4820
vn -0.0000 0.9990 0.0439
vn -0.8762 -0.0000 0.4820
vn -0.0000 -0.7945 0.6072
vn -0.5849 0.8096 -0.0498
vn 0.5849 0.8096 -0.0498
vt 0.375000 0.000000
vt 0.625000 0.000000
vt 0.625000 0.250000
vt 0.375000 0.250000
vt 0.625000 0.500000
vt 0.375000 0.500000
vt 0.625000 0.750000
vt 0.375000 0.750000
vt 0.625000 1.000000
vt 0.125000 0.500000
vt 0.125000 0.750000
vt 0.375000 1.000000
vt 0.875000 0.500000
vt 0.875000 0.750000
s 0
f 9/1/1 10/2/1 4/3/1 3/4/1
f 3/4/2 4/3/2 8/5/2 7/6/2
f 7/6/3 8/5/3 11/7/3 12/8/3
f 10/9/4 11/7/4 20/7/4 17/9/4
f 3/10/5 7/6/5 12/8/5 9/11/5
f 14/7/6 15/9/6 24/9/6 21/7/6
f 1/12/7 2/9/7 10/9/7 9/12/7
f 6/7/7 5/8/7 12/8/7 11/7/7
f 5/8/7 1/12/7 9/12/7 12/8/7
f 2/9/7 6/7/7 11/7/7 10/9/7
f 5/8/7 6/7/7 14/7/7 13/8/7
f 6/7/7 2/9/7 15/9/7 14/7/7
f 2/9/7 1/12/7 16/12/7 15/9/7
f 1/12/7 5/8/7 13/8/7 16/12/7
f 22/8/8 21/7/8 24/9/8 23/12/8
f 19/5/9 18/13/9 17/14/9 20/7/9
f 13/8/10 14/7/10 21/7/10 22/8/10
f 8/5/11 4/3/11 18/3/11 19/5/11
f 15/9/12 16/12/12 23/12/12 24/9/12
f 16/12/13 13/8/13 22/8/13 23/12/13
f 11/7/14 8/5/14 19/5/14 20/7/14
f 4/3/15 10/2/15 17/2/15 18/3/15
o lower_neck_1
v -0.609183 -0.200863 0.091723
v -0.624519 0.126424 0.198750
v -0.562761 -0.092744 -0.232254
v -0.578097 0.234543 -0.125228
v -0.267985 -0.200863 0.140613
v -0.283321 0.126424 0.247640
v -0.221563 -0.092744 -0.183365
v -0.236899 0.234543 -0.076338
v -0.681429 -0.369125 0.595918
v -0.696765 -0.041838 0.702944
v -0.355566 -0.041838 0.751834
v -0.340231 -0.369125 0.644808
vn -0.9899 -0.0000 -0.1418
vn 0.1347 0.3137 -0.9399
vn 0.9899 -0.0000 0.1418
vn 0.0445 -0.9495 -0.3105
vn -0.0445 0.9495 0.3105
vn -0.1347 -0.3137 0.9399
vt 0.375000 0.000000
vt 0.625000 0.000000
vt 0.625000 0.250000
vt 0.375000 0.250000
vt 0.625000 0.500000
vt 0.375000 0.500000
vt 0.625000 0.750000
vt 0.375000 0.750000
vt 0.125000 0.500000
vt 0.125000 0.750000
vt 0.875000 0.500000
vt 0.875000 0.750000
vt 0.625000 1.000000
vt 0.375000 1.000000
s 0
f 25/15/16 26/16/16 28/17/16 27/18/16
f 27/18/17 28/17/17 32/19/17 31/20/17
f 31/20/18 32/19/18 30/21/18 29/22/18
f 26/16/16 25/15/16 33/15/16 34/16/16
f 27/23/19 31/20/19 29/22/19 25/24/19
f 32/19/20 28/25/20 26/26/20 30/21/20
f 36/22/21 35/21/21 34/27/21 33/28/21
f 25/24/19 29/22/19 36/22/19 33/24/19
f 30/21/20 26/26/20 34/26/20 35/21/20
f 29/22/18 30/21/18 35/21/18 36/22/18
o upper_neck_1
v -0.732152 -0.481200 0.903356
v -0.747488 -0.153914 1.010382
v -0.685730 -0.373081 0.579378
v -0.701065 -0.045794 0.686404
v -0.390954 -0.481200 0.952246
v -0.406289 -0.153914 1.059272
v -0.344531 -0.373081 0.628268
v -0.359867 -0.045794 0.735294
v -0.804397 -0.649462 1.407550
v -0.819733 -0.322176 1.514576
v -0.478535 -0.322176 1.563466
v -0.463199 -0.649462 1.456440
vn -0.9899 -0.0000 -0.1418
vn 0.1347 0.3137 -0.9399
vn 0.9899 -0.0000 0.1418
vn 0.0445 -0.9495 -0.3105
vn -0.0445 0.9495 0.3105
vn -0.1347 -0.3137 0.9399
vt 0.375000 0.000000
vt 0.625000 0.000000
vt 0.625000 0.250000
vt 0.375000 0.250000
vt 0.625000 0.500000
vt 0.375000 0.500000
vt 0.625000 0.750000
vt 0.375000 0.750000
vt 0.125000 0.500000
vt 0.125000 0.750000
vt 0.875000 0.500000
vt 0.875000 0.750000
vt 0.625000 1.000000
vt 0.375000 1.000000
s 0
f 37/29/22 38/30/22 40/31/22 39/32/22
f 39/32/23 40/31/23 44/33/23 43/34/23
f 43/34/24 44/33/24 42/35/24 41/36/24
f 38/30/22 37/29/22 45/29/22 46/30/22
f 39/37/25 43/34/25 41/36/25 37/38/25
f 44/33/26 40/39/26 38/40/26 42/35/26
f 48/36/27 47/35/27 46/41/27 45/42/27
f 37/38/25 41/36/25 48/36/25 45/38/25
f 42/35/26 38/40/26 46/40/26 47/35/26
f 41/36/24 42/35/24 47/35/24 48/36/24
o jaw_1
v -0.814782 -0.399272 1.480022
v -0.818368 -0.322741 1.505048
v -0.803927 -0.373990 1.404265
v -0.807513 -0.297459 1.429291
v -0.473584 -0.401305 1.528912
v -0.477170 -0.324774 1.553938
v -0.462728 -0.376023 1.453155
v -0.466314 -0.299492 1.478181
v -0.881583 -0.530270 1.946225
v -0.885169 -0.453739 1.971251
v -0.543971 -0.453739 2.020141
v -0.540385 -0.530270 1.995115
vn -0.9899 -0.0000 -0.1418
vn 0.1365 0.3137 -0.9397
vn 0.9899 -0.0000 0.1418
vn 0.0389 -0.9495 -0.3113
vn -0.0389 0.9495 0.3113
vn -0.1347 -0.3137 0.9399
vn 0.0349 -0.9640 -0.2638
vn -0.0349 0.9640 0.2638
vt 0.375000 0.000000
vt 0.625000 0.000000
vt 0.625000 0.250000
vt 0.375000 0.250000
vt 0.625000 0.500000
vt 0.375000 0.500000
vt 0.625000 0.750000
vt 0.375000 0.750000
vt 0.125000 0.500000
vt 0.125000 0.750000
vt 0.875000 0.500000
vt 0.875000 0.750000
vt 0.625000 1.000000
vt 0.375000 1.000000
s 0
f 49/43/28 50/44/28 52/45/28 51/46/28
f 51/46/29 52/45/29 56/47/29 55/48/29
f 55/48/30 56/47/30 54/49/30 53/50/30
f 50/44/28 49/43/28 57/43/28 58/44/28
f 51/51/31 55/48/31 53/50/31 49/52/31
f 56/47/32 52/53/32 50/54/32 54/49/32
f 60/50/33 59/49/33 58/55/33 57/56/33
f 49/52/34 53/50/34 60/50/34 57/52/34
f 54/49/35 50/54/35 58/54/35 59/49/35
f 53/50/30 54/49/30 59/49/30 60/50/30
o head_1
v -0.828141 -0.996015 1.573253
v -0.854509 -0.705042 1.757275
v -0.781144 -0.601133 1.245268
v -0.807513 -0.410747 1.429291
v -0.486942 -0.996015 1.622142
v -0.513311 -0.705042 1.806165
v -0.439946 -0.601133 1.294158
v -0.466314 -0.410747 1.478181
v -0.898443 -0.912483 2.063888
v -0.902029 -0.735364 2.088914
v -0.560831 -0.735364 2.137804
v -0.557245 -0.912483 2.112778
vn -0.9899 -0.0000 -0.1418
vn 0.1015 0.6986 -0.7082
vn 0.9899 -0.0000 0.1418
vn 0.1087 -0.6428 -0.7583
vn -0.0942 0.7477 0.6574
vn -0.1404 -0.1413 0.9800
vn -0.0236 -0.9861 0.1645
vn -0.0128 0.9959 0.0892
vt 0.375000 0.000000
vt 0.625000 0.000000
vt 0.625000 0.250000
vt 0.375000 0.250000
vt 0.625000 0.500000
vt 0.375000 0.500000
vt 0.625000 0.750000
vt 0.375000 0.750000
vt 0.125000 0.500000
vt 0.125000 0.750000
vt 0.875000 0.500000
vt 0.875000 0.750000
vt 0.625000 1.000000
vt 0.375000 1.000000
s 0
f 61/57/36 62/58/36 64/59/36 63/60/36
f 63/60/37 64/59/37 68/61/37 67/62/37
f 67/62/38 68/61/38 66/63/38 65/64/38
f 62/58/36 61/57/36 69/57/36 70/58/36
f 63/65/39 67/62/39 65/64/39 61/66/39
f 68/61/40 64/67/40 62/68/40 66/63/40
f 72/64/41 71/63/41 70/69/41 69/70/41
f 61/66/42 65/64/42 72/64/42 69/66/42
f 66/63/43 62/68/43 70/68/43 71/63/43
f 65/64/38 66/63/38 71/63/38 72/64/38
o upper_neck_2
v -0.175801 -0.481201 0.938145
v -0.175801 -0.153914 1.046264
v -0.175801 -0.373081 0.610858
v -0.175801 -0.045794 0.718977
v 0.168882 -0.481201 0.938145
v 0.168882 -0.153914 1.046264
v 0.168882 -0.373081 0.610858
v 0.168882 -0.045794 0.718977
v -0.175801 -0.649463 1.447489
v -0.175801 -0.322176 1.555608
v 0.168882 -0.322176 1.555608
v 0.168882 -0.649463 1.447489
vn -1.0000 -0.0000 -0.0000
vn -0.0000 0.3137 -0.9495
vn 1.0000 -0.0000 -0.0000
vn -0.0000 -0.9495 -0.3137
vn -0.0000 0.9495 0.3137
vn -0.0000 -0.3137 0.9495
vt 0.375000 0.000000
vt 0.625000 0.000000
vt 0.625000 0.250000
vt 0.375000 0.250000
vt 0.625000 0.500000
vt 0.375000 0.500000
vt 0.625000 0.750000
vt 0.375000 0.750000
vt 0.125000 0.500000
vt 0.125000 0.750000
vt 0.875000 0.500000
vt 0.875000 0.750000
vt 0.625000 1.000000
vt 0.375000 1.000000
s 0
f 73/71/44 74/72/44 76/73/44 75/74/44
f 75/74/45 76/73/45 80/75/45 79/76/45
f 79/76/46 80/75/46 78/77/46 77/78/46
f 74/72/44 73/71/44 81/71/44 82/72/44
f 75/79/47 79/76/47 77/78/47 73/80/47
f 80/75/48 76/81/48 74/82/48 78/77/48
f 84/78/49 83/77/49 82/83/49 81/84/49
f 73/80/47 77/78/47 84/78/47 81/80/47
f 78/77/48 74/82/48 82/82/48 83/77/48
f 77/78/46 78/77/46 83/77/46 84/78/46
o lower_neck_2
v -0.169198 -0.200863 0.117276
v -0.169198 0.126424 0.225396
v -0.169198 -0.092744 -0.210011
v -0.169198 0.234543 -0.101891
v 0.175485 -0.200863 0.117276
v 0.175485 0.126424 0.225396
v 0.175485 -0.092744 -0.210011
v 0.175485 0.234543 -0.101891
v -0.169198 -0.369125 0.626620
v -0.169198 -0.041838 0.734740
v 0.175485 -0.041838 0.734740
v 0.175485 -0.369125 0.626620
vn -1.0000 -0.0000 -0.0000
vn -0.0000 0.3137 -0.9495
vn 1.0000 -0.0000 -0.0000
vn -0.0000 -0.9495 -0.3137
vn -0.0000 0.9495 0.3137
vn -0.0000 -0.3137 0.9495
vt 0.375000 0.000000
vt 0.625000 0.000000
vt 0.625000 0.250000
vt 0.375000 0.250000
vt 0.625000 0.500000
vt 0.375000 0.500000
vt 0.625000 0.750000
vt 0.375000 0.750000
vt 0.125000 0.500000
vt 0.125000 0.750000
vt 0.875000 0.500000
vt 0.875000 0.750000
vt 0.625000 1.000000
vt 0.375000 1.000000
s 0
f 85/85/50 86/86/50 88/87/50 87/88/50
f 87/88/51 88/87/51 92/89/51 91/90/51
f 91/90/52 92/89/52 90/91/52 89/92/52
f 86/86/50 85/85/50 93/85/50 94/86/50
f 87/93/53 91/90/53 89/92/53 85/94/53
f 92/89/54 88/95/54 86/96/54 90/91/54
f 96/92/55 95/91/55 94/97/55 93/98/55
f 85/94/53 89/92/53 96/92/53 93/94/53
f 90/91/54 86/96/54 94/96/54 95/91/54
f 89/92/52 90/91/52 95/91/52 96/92/52
o jaw_2
v -0.175801 -0.399272 1.520700
v -0.175801 -0.322741 1.545982
v -0.175801 -0.373990 1.444170
v -0.175801 -0.297459 1.469452
v 0.168882 -0.401305 1.520700
v 0.168882 -0.324775 1.545982
v 0.168882 -0.376023 1.444170
v 0.168882 -0.299493 1.469452
v -0.175801 -0.530270 1.991665
v -0.175801 -0.453739 2.016947
v 0.168882 -0.453739 2.016947
v 0.168882 -0.530270 1.991665
vn -1.0000 -0.0000 -0.0000
vn 0.0019 0.3137 -0.9495
vn 1.0000 -0.0000 -0.0000
vn -0.0056 -0.9495 -0.3137
vn 0.0056 0.9495 0.3137
vn -0.0000 -0.3137 0.9495
vn -0.0028 -0.9640 -0.2660
vn 0.0028 0.9640 0.2660
vt 0.375000 0.000000
vt 0.625000 0.000000
vt 0.625000 0.250000
vt 0.375000 0.250000
vt 0.625000 0.500000
vt 0.375000 0.500000
vt 0.625000 0.750000
vt 0.375000 0.750000
vt 0.125000 0.500000
vt 0.125000 0.750000
vt 0.875000 0.500000
vt 0.875000 0.750000
vt 0.625000 1.000000
vt 0.375000 1.000000
s 0
f 97/99/56 98/100/56 100/101/56 99/102/56
f 99/102/57 100/101/57 104/103/57 103/104/57
f 103/104/58 104/103/58 102/105/58 101/106/58
f 98/100/56 97/99/56 105/99/56 106/100/56
f 99/107/59 103/104/59 101/106/59 97/108/59
f 104/103/60 100/109/60 98/110/60 102/105/60
f 108/106/61 107/105/61 106/111/61 105/112/61
f 97/108/62 101/106/62 108/106/62 105/108/62
f 102/105/63 98/110/63 106/110/63 107/105/63
f 101/106/58 102/105/58 107/105/58 108/106/58
o head_2
v -0.175801 -0.996016 1.614883
v -0.175801 -0.705042 1.800786
v -0.175801 -0.601133 1.283549
v -0.175801 -0.410747 1.469452
v 0.168882 -0.996016 1.614883
v 0.168882 -0.705042 1.800786
v 0.168882 -0.601133 1.283549
v 0.168882 -0.410747 1.469452
v -0.175801 -0.912483 2.110530
v -0.175801 -0.735364 2.135812
v 0.168882 -0.735364 2.135812
v 0.168882 -0.912483 2.110530
vn -1.0000 -0.0000 -0.0000
vn -0.0000 0.6986 -0.7155
vn 1.0000 -0.0000 -0.0000
vn -0.0000 -0.6428 -0.7661
vn -0.0000 0.7477 0.6641
vn -0.0000 -0.1413 0.9900
vn -0.0000 -0.9861 0.1662
vn -0.0000 0.9959 0.0901
vt 0.375000 0.000000
vt 0.625000 0.000000
vt 0.625000 0.250000
vt 0.375000 0.250000
vt 0.625000 0.500000
vt 0.375000 0.500000
vt 0.625000 0.750000
vt 0.375000 0.750000
vt 0.125000 0.500000
vt 0.125000 0.750000
vt 0.875000 0.500000
vt 0.875000 0.750000
vt 0.625000 1.000000
vt 0.375000 1.000000
s 0
f 109/113/64 110/114/64 112/115/64 111/116/64
f 111/116/65 112/115/65 116/117/65 115/118/65
f 115/118/66 116/117/66 114/119/66 113/120/66
f 110/114/64 109/113/64 117/113/64 118/114/64
f 111/121/67 115/118/67 113/120/67 109/122/67
f 116/117/68 112/123/68 110/124/68 114/119/68
f 120/120/69 119/119/69 118/125/69 117/126/69
f 109/122/70 113/120/70 120/120/70 117/122/70
f 114/119/71 110/124/71 118/124/71 119/119/71
f 113/120/66 114/119/66 119/119/66 120/120/66
o upper_neck_3
v 0.402503 -0.481201 0.955194
v 0.422715 -0.153914 1.061407
v 0.341323 -0.373081 0.633676
v 0.361534 -0.045794 0.739890
v 0.741111 -0.481201 0.890761
v 0.761322 -0.153914 0.996974
v 0.679930 -0.373081 0.569243
v 0.700141 -0.045794 0.675457
v 0.497717 -0.649463 1.455559
v 0.517928 -0.322176 1.561773
v 0.856535 -0.322176 1.497340
v 0.836324 -0.649463 1.391127
vn -0.9824 -0.0000 0.1869
vn -0.1775 0.3137 -0.9328
vn 0.9824 -0.0000 -0.1869
vn -0.0586 -0.9495 -0.3081
vn 0.0586 0.9495 0.3081
vn 0.1775 -0.3137 0.9328
vt 0.375000 0.000000
vt 0.625000 0.000000
vt 0.625000 0.250000
vt 0.375000 0.250000
vt 0.625000 0.500000
vt 0.375000 0.500000
vt 0.625000 0.750000
vt 0.375000 0.750000
vt 0.125000 0.500000
vt 0.125000 0.750000
vt 0.875000 0.500000
vt 0.875000 0.750000
vt 0.625000 1.000000
vt 0.375000 1.000000
s 0
f 121/127/72 122/128/72 124/129/72 123/130/72
f 123/130/73 124/129/73 128/131/73 127/132/73
f 127/132/74 128/131/74 126/133/74 125/134/74
f 122/128/72 121/127/72 129/127/72 130/128/72
f 123/135/75 127/132/75 125/134/75 121/136/75
f 128/131/76 124/137/76 122/138/76 126/133/76
f 132/134/77 131/133/77 130/139/77 129/140/77
f 121/136/75 125/134/75 132/134/75 129/136/75
f 126/133/76 122/138/76 130/138/76 131/133/76
f 125/134/74 126/133/74 131/133/74 132/134/74
o lower_neck_3
v 0.255542 -0.200863 0.147561
v 0.275754 0.126424 0.253775
v 0.194361 -0.092744 -0.173957
v 0.214573 0.234543 -0.067743
v 0.594150 -0.200863 0.083128
v 0.614361 0.126424 0.189342
v 0.532969 -0.092744 -0.238389
v 0.553180 0.234543 -0.132176
v 0.350756 -0.369125 0.647927
v 0.370967 -0.041838 0.754140
v 0.709574 -0.041838 0.689707
v 0.689363 -0.369125 0.583494
vn -0.9824 -0.0000 0.1869
vn -0.1775 0.3137 -0.9328
vn 0.9824 -0.0000 -0.1869
vn -0.0586 -0.9495 -0.3081
vn 0.0586 0.9495 0.3081
vn 0.1775 -0.3137 0.9328
vt 0.375000 0.000000
vt 0.625000 0.000000
vt 0.625000 0.250000
vt 0.375000 0.250000
vt 0.625000 0.500000
vt 0.375000 0.500000
vt 0.625000 0.750000
vt 0.375000 0.750000
vt 0.125000 0.500000
vt 0.125000 0.750000
vt 0.875000 0.500000
vt 0.875000 0.750000
vt 0.625000 1.000000
vt 0.375000 1.000000
s 0
f 133/141/78 134/142/78 136/143/78 135/144/78
f 135/144/79 136/143/79 140/145/79 139/146/79
f 139/146/80 140/145/80 138/147/80 137/148/80
f 134/142/78 133/141/78 141/141/78 142/142/78
f 135/149/81 139/146/81 137/148/81 133/150/81
f 140/145/82 136/151/82 134/152/82 138/147/82
f 144/148/83 143/147/83 142/153/83 141/154/83
f 133/150/81 137/148/81 144/148/81 141/150/81
f 138/147/82 134/152/82 142/152/82 143/147/82
f 137/148/80 138/147/80 143/147/80 144/148/80
o jaw_3
v 0.511403 -0.399272 1.527481
v 0.516129 -0.322741 1.552317
v 0.497097 -0.373990 1.452299
v 0.501823 -0.297459 1.477135
v 0.850010 -0.401305 1.463048
v 0.854736 -0.324775 1.487884
v 0.835704 -0.376023 1.387866
v 0.840430 -0.299493 1.412702
v 0.599442 -0.530270 1.990143
v 0.604168 -0.453739 2.014980
v 0.942775 -0.453739 1.950547
v 0.938049 -0.530270 1.925710
vn -0.9824 -0.0000 0.1869
vn -0.1757 0.3137 -0.9331
vn 0.9824 -0.0000 -0.1869
vn -0.0641 -0.9495 -0.3071
vn 0.0641 0.9495 0.3071
vn 0.1775 -0.3137 0.9328
vn -0.0525 -0.9640 -0.2608
vn 0.0525 0.9640 0.2608
vt 0.375000 0.000000
vt 0.625000 0.000000
vt 0.625000 0.250000
vt 0.375000 0.250000
vt 0.625000 0.500000
vt 0.375000 0.500000
vt 0.625000 0.750000
vt 0.375000 0.750000
vt 0.125000 0.500000
vt 0.125000 0.750000
vt 0.875000 0.500000
vt 0.875000 0.750000
vt 0.625000 1.000000
vt 0.375000 1.000000
s 0
f 145/155/84 146/156/84 148/157/84 147/158/84
f 147/158/85 148/157/85 152/159/85 151/160/85
f 151/160/86 152/159/86 150/161/86 149/162/86
f 146/156/84 145/155/84 153/155/84 154/156/84
f 147/163/87 151/160/87 149/162/87 145/164/87
f 152/159/88 148/165/88 146/166/88 150/161/88
f 156/162/89 155/161/89 154/167/89 153/168/89
f 145/164/90 149/162/90 156/162/90 153/164/90
f 150/161/91 146/166/91 154/166/91 155/161/91
f 149/162/86 150/161/86 155/161/86 156/162/86
o head_3
v 0.529009 -0.996016 1.620003
v 0.563760 -0.705042 1.802629
v 0.467071 -0.601133 1.294510
v 0.501823 -0.410747 1.477135
v 0.867616 -0.996016 1.555571
v 0.902367 -0.705042 1.738196
v 0.805679 -0.601133 1.230077
v 0.840430 -0.410747 1.412702
v 0.621662 -0.912483 2.106913
v 0.626388 -0.735364 2.131750
v 0.964995 -0.735364 2.067317
v 0.960269 -0.912483 2.042480
vn -0.9824 -0.0000 0.1869
vn -0.1337 0.6986 -0.7029
vn 0.9824 -0.0000 -0.1869
vn -0.1432 -0.6428 -0.7526
vn 0.1241 0.7477 0.6524
vn 0.1851 -0.1413 0.9725
vn 0.0311 -0.9861 0.1633
vn 0.0168 0.9959 0.0885
vt 0.375000 0.000000
vt 0.625000 0.000000
vt 0.625000 0.250000
vt 0.375000 0.250000
vt 0.625000 0.500000
vt 0.375000 0.500000
vt 0.625000 0.750000
vt 0.375000 0.750000
vt 0.125000 0.500000
vt 0.125000 0.750000
vt 0.875000 0.500000
vt 0.875000 0.750000
vt 0.625000 1.000000
vt 0.375000 1.000000
s 0
f 157/169/92 158/170/92 160/171/92 159/172/92
f 159/172/93 160/171/93 164/173/93 163/174/93
f 163/174/94 164/173/94 162/175/94 161/176/94
f 158/170/92 157/169/92 165/169/92 166/170/92
f 159/177/95 163/174/95 161/176/95 157/178/95
f 164/173/96 160/179/96 158/180/96 162/175/96
f 168/176/97 167/175/97 166/181/97 165/182/97
f 157/178/98 161/176/98 168/176/98 165/178/98
f 162/175/99 158/180/99 166/180/99 167/175/99
f 161/176/94 162/175/94 167/175/94 168/176/94
