{
	"asset":{
		"generator":"Khronos glTF Blender I/O v4.3.47",
		"version":"2.0"
	},
	"scene":0,
	"scenes":[
		{
			"name":"Scene",
			"nodes":[
				12
			]
		}
	],
	"nodes":[
		{
			"mesh":0,
			"name":"head_1",
			"scale":[
				1,
				0.23383447527885437,
				0.23383447527885437
			],
			"translation":[
				0,
				0.07150444388389587,
				4.049351215362549
			]
		},
		{
			"mesh":1,
			"name":"jaw_1",
			"scale":[
				1,
				0.23383447527885437,
				0.23383447527885437
			],
			"translation":[
				0,
				0.07150444388389587,
				4.049351215362549
			]
		},
		{
			"children":[
				0,
				1
			],
			"mesh":2,
			"name":"upper_neck_1",
			"translation":[
				-0.038314513862133026,
				-0.05048483610153198,
				5.03287935256958
			]
		},
		{
			"children":[
				2
			],
			"mesh":3,
			"name":"lower_neck_1",
			"rotation":[
				0.15845394134521484,
				-0.07019714266061783,
				0.011294657364487648,
				0.9848031401634216
			],
			"scale":[
				0.17234155535697937,
				0.17234155535697937,
				0.17234155535697937
			],
			"translation":[
				-0.4200083315372467,
				0,
				1.9182822704315186
			]
		},
		{
			"mesh":4,
			"name":"head_2",
			"scale":[
				1,
				0.23383447527885437,
				0.23383447527885437
			],
			"translation":[
				0,
				0.07150380313396454,
				4.049350738525391
			]
		},
		{
			"mesh":5,
			"name":"jaw_2",
			"scale":[
				1,
				0.23383447527885437,
				0.23383447527885437
			],
			"translation":[
				0,
				0.07150380313396454,
				4.049350738525391
			]
		},
		{
			"children":[
				4,
				5
			],
			"mesh":6,
			"name":"upper_neck_2",
			"translation":[
				-0.038314759731292725,
				-0.050485044717788696,
				5.03287935256958
			]
		},
		{
			"children":[
				6
			],
			"mesh":7,
			"name":"lower_neck_2",
			"rotation":[
				0.15885600447654724,
				0,
				0,
				0.9873018264770508
			],
			"scale":[
				0.17234155535697937,
				0.17234155535697937,
				0.17234155535697937
			],
			"translation":[
				0.006176576018333435,
				0,
				1.9182822704315186
			]
		},
		{
			"mesh":8,
			"name":"head_3",
			"scale":[
				1,
				0.23383447527885437,
				0.23383446037769318
			],
			"translation":[
				0,
				0.0715038925409317,
				4.049351215362549
			]
		},
		{
			"mesh":9,
			"name":"jaw_3",
			"scale":[
				1,
				0.23383447527885437,
				0.23383446037769318
			],
			"translation":[
				0,
				0.0715038925409317,
				4.049351215362549
			]
		},
		{
			"children":[
				8,
				9
			],
			"mesh":10,
			"name":"upper_neck_3",
			"translation":[
				-0.038314707577228546,
				-0.05048517882823944,
				5.03287935256958
			]
		},
		{
			"children":[
				10
			],
			"mesh":11,
			"name":"lower_neck_3",
			"rotation":[
				0.15815439820289612,
				0.09268935024738312,
				-0.014913635328412056,
				0.9829413294792175
			],
			"scale":[
				0.17234155535697937,
				0.17234155535697937,
				0.17234155535697937
			],
			"translation":[
				0.40739381313323975,
				0,
				1.9182822704315186
			]
		},
		{
			"children":[
				3,
				7,
				11
			],
			"mesh":12,
			"name":"body",
			"translation":[
				-0.003032684326171875,
				0.016839981079101562,
				-1.9105896949768066
			]
		}
	],
	"meshes":[
		{
			"name":"Cube.006",
			"primitives":[
				{
					"attributes":{
						"POSITION":0,
						"NORMAL":1,
						"TEXCOORD_0":2
					},
					"indices":3
				}
			]
		},
		{
			"name":"Cube.004",
			"primitives":[
				{
					"attributes":{
						"POSITION":4,
						"NORMAL":5,
						"TEXCOORD_0":6
					},
					"indices":7
				}
			]
		},
		{
			"name":"Cube.003",
			"primitives":[
				{
					"attributes":{
						"POSITION":8,
						"NORMAL":9,
						"TEXCOORD_0":10
					},
					"indices":11
				}
			]
		},
		{
			"name":"Cube.002",
			"primitives":[
				{
					"attributes":{
						"POSITION":12,
						"NORMAL":13,
						"TEXCOORD_0":14
					},
					"indices":11
				}
			]
		},
		{
			"name":"Cube.011",
			"primitives":[
				{
					"attributes":{
						"POSITION":15,
						"NORMAL":16,
						"TEXCOORD_0":17
					},
					"indices":3
				}
			]
		},
		{
			"name":"Cube.012",
			"primitives":[
				{
					"attributes":{
						"POSITION":18,
						"NORMAL":19,
						"TEXCOORD_0":20
					},
					"indices":7
				}
			]
		},
		{
			"name":"Cube.013",
			"primitives":[
				{
					"attributes":{
						"POSITION":21,
						"NORMAL":22,
						"TEXCOORD_0":23
					},
					"indices":11
				}
			]
		},
		{
			"name":"Cube.014",
			"primitives":[
				{
					"attributes":{
						"POSITION":24,
						"NORMAL":25,
						"TEXCOORD_0":26
					},
					"indices":11
				}
			]
		},
		{
			"name":"Cube.020",
			"primitives":[
				{
					"attributes":{
						"POSITION":27,
						"NORMAL":28,
						"TEXCOORD_0":29
					},
					"indices":3
				}
			]
		},
		{
			"name":"Cube.019",
			"primitives":[
				{
					"attributes":{
						"POSITION":30,
						"NORMAL":31,
						"TEXCOORD_0":32
					},
					"indices":7
				}
			]
		},
		{
			"name":"Cube.018",
			"primitives":[
				{
					"attributes":{
						"POSITION":33,
						"NORMAL":34,
						"TEXCOORD_0":35
					},
					"indices":11
				}
			]
		},
		{
			"name":"Cube.017",
			"primitives":[
				{
					"attributes":{
						"POSITION":36,
						"NORMAL":37,
						"TEXCOORD_0":38
					},
					"indices":11
				}
			]
		},
		{
			"name":"Cube.001",
			"primitives":[
				{
					"attributes":{
						"POSITION":39,
						"NORMAL":40,
						"TEXCOORD_0":41
					},
					"indices":42
				}
			]
		}
	],
	"accessors":[
		{
			"bufferView":0,
			"componentType":5126,
			"count":36,
			"max":[
				1,
				1.2132134437561035,
				17.939929962158203
			],
			"min":[
				-1,
				-11.444812774658203,
				-3.9687411785125732
			],
			"type":"VEC3"
		},
		{
			"bufferView":1,
			"componentType":5126,
			"count":36,
			"type":"VEC3"
		},
		{
			"bufferView":2,
			"componentType":5126,
			"count":36,
			"type":"VEC2"
		},
		{
			"bufferView":3,
			"componentType":5123,
			"count":60,
			"type":"SCALAR"
		},
		{
			"bufferView":4,
			"componentType":5126,
			"count":36,
			"max":[
				1,
				4.46176815032959,
				12.164220809936523
			],
			"min":[
				-1,
				1.8345873355865479,
				-1.9522333145141602
			],
			"type":"VEC3"
		},
		{
			"bufferView":5,
			"componentType":5126,
			"count":36,
			"type":"VEC3"
		},
		{
			"bufferView":6,
			"componentType":5126,
			"count":36,
			"type":"VEC2"
		},
		{
			"bufferView":7,
			"componentType":5123,
			"count":60,
			"type":"SCALAR"
		},
		{
			"bufferView":8,
			"componentType":5126,
			"count":32,
			"max":[
				1,
				1,
				4.112524509429932
			],
			"min":[
				-1,
				-1,
				-1
			],
			"type":"VEC3"
		},
		{
			"bufferView":9,
			"componentType":5126,
			"count":32,
			"type":"VEC3"
		},
		{
			"bufferView":10,
			"componentType":5126,
			"count":32,
			"type":"VEC2"
		},
		{
			"bufferView":11,
			"componentType":5123,
			"count":60,
			"type":"SCALAR"
		},
		{
			"bufferView":12,
			"componentType":5126,
			"count":32,
			"max":[
				1,
				1,
				4.112524509429932
			],
			"min":[
				-1,
				-1,
				-1
			],
			"type":"VEC3"
		},
		{
			"bufferView":13,
			"componentType":5126,
			"count":32,
			"type":"VEC3"
		},
		{
			"bufferView":14,
			"componentType":5126,
			"count":32,
			"type":"VEC2"
		},
		{
			"bufferView":15,
			"componentType":5126,
			"count":36,
			"max":[
				1,
				1.2132134437561035,
				17.939929962158203
			],
			"min":[
				-1,
				-11.444812774658203,
				-3.9687411785125732
			],
			"type":"VEC3"
		},
		{
			"bufferView":16,
			"componentType":5126,
			"count":36,
			"type":"VEC3"
		},
		{
			"bufferView":17,
			"componentType":5126,
			"count":36,
			"type":"VEC2"
		},
		{
			"bufferView":18,
			"componentType":5126,
			"count":36,
			"max":[
				1,
				4.46176815032959,
				12.164220809936523
			],
			"min":[
				-1,
				1.8345873355865479,
				-1.9522333145141602
			],
			"type":"VEC3"
		},
		{
			"bufferView":19,
			"componentType":5126,
			"count":36,
			"type":"VEC3"
		},
		{
			"bufferView":20,
			"componentType":5126,
			"count":36,
			"type":"VEC2"
		},
		{
			"bufferView":21,
			"componentType":5126,
			"count":32,
			"max":[
				1,
				1,
				4.112524509429932
			],
			"min":[
				-1,
				-1,
				-1
			],
			"type":"VEC3"
		},
		{
			"bufferView":22,
			"componentType":5126,
			"count":32,
			"type":"VEC3"
		},
		{
			"bufferView":23,
			"componentType":5126,
			"count":32,
			"type":"VEC2"
		},
		{
			"bufferView":24,
			"componentType":5126,
			"count":32,
			"max":[
				1,
				1,
				4.112524509429932
			],
			"min":[
				-1,
				-1,
				-1
			],
			"type":"VEC3"
		},
		{
			"bufferView":25,
			"componentType":5126,
			"count":32,
			"type":"VEC3"
		},
		{
			"bufferView":26,
			"componentType":5126,
			"count":32,
			"type":"VEC2"
		},
		{
			"bufferView":27,
			"componentType":5126,
			"count":36,
			"max":[
				1,
				1.2132134437561035,
				17.939929962158203
			],
			"min":[
				-1,
				-11.444812774658203,
				-3.9687411785125732
			],
			"type":"VEC3"
		},
		{
			"bufferView":28,
			"componentType":5126,
			"count":36,
			"type":"VEC3"
		},
		{
			"bufferView":29,
			"componentType":5126,
			"count":36,
			"type":"VEC2"
		},
		{
			"bufferView":30,
			"componentType":5126,
			"count":36,
			"max":[
				1,
				4.46176815032959,
				12.164220809936523
			],
			"min":[
				-1,
				1.8345873355865479,
				-1.9522333145141602
			],
			"type":"VEC3"
		},
		{
			"bufferView":31,
			"componentType":5126,
			"count":36,
			"type":"VEC3"
		},
		{
			"bufferView":32,
			"componentType":5126,
			"count":36,
			"type":"VEC2"
		},
		{
			"bufferView":33,
			"componentType":5126,
			"count":32,
			"max":[
				1,
				1,
				4.112524509429932
			],
			"min":[
				-1,
				-1,
				-1
			],
			"type":"VEC3"
		},
		{
			"bufferView":34,
			"componentType":5126,
			"count":32,
			"type":"VEC3"
		},
		{
			"bufferView":35,
			"componentType":5126,
			"count":32,
			"type":"VEC2"
		},
		{
			"bufferView":36,
			"componentType":5126,
			"count":32,
			"max":[
				1,
				1,
				4.112524509429932
			],
			"min":[
				-1,
				-1,
				-1
			],
			"type":"VEC3"
		},
		{
			"bufferView":37,
			"componentType":5126,
			"count":32,
			"type":"VEC3"
		},
		{
			"bufferView":38,
			"componentType":5126,
			"count":32,
			"type":"VEC2"
		},
		{
			"bufferView":39,
			"componentType":5126,
			"count":68,
			"max":[
				1,
				1,
				1.7843230962753296
			],
			"min":[
				-1,
				-1,
				-1
			],
			"type":"VEC3"
		},
		{
			"bufferView":40,
			"componentType":5126,
			"count":68,
			"type":"VEC3"
		},
		{
			"bufferView":41,
			"componentType":5126,
			"count":68,
			"type":"VEC2"
		},
		{
			"bufferView":42,
			"componentType":5123,
			"count":132,
			"type":"SCALAR"
		}
	],
	"bufferViews":[
		{
			"buffer":0,
			"byteLength":432,
			"byteOffset":0,
			"target":34962
		},
		{
			"buffer":0,
			"byteLength":432,
			"byteOffset":432,
			"target":34962
		},
		{
			"buffer":0,
			"byteLength":288,
			"byteOffset":864,
			"target":34962
		},
		{
			"buffer":0,
			"byteLength":120,
			"byteOffset":1152,
			"target":34963
		},
		{
			"buffer":0,
			"byteLength":432,
			"byteOffset":1272,
			"target":34962
		},
		{
			"buffer":0,
			"byteLength":432,
			"byteOffset":1704,
			"target":34962
		},
		{
			"buffer":0,
			"byteLength":288,
			"byteOffset":2136,
			"target":34962
		},
		{
			"buffer":0,
			"byteLength":120,
			"byteOffset":2424,
			"target":34963
		},
		{
			"buffer":0,
			"byteLength":384,
			"byteOffset":2544,
			"target":34962
		},
		{
			"buffer":0,
			"byteLength":384,
			"byteOffset":2928,
			"target":34962
		},
		{
			"buffer":0,
			"byteLength":256,
			"byteOffset":3312,
			"target":34962
		},
		{
			"buffer":0,
			"byteLength":120,
			"byteOffset":3568,
			"target":34963
		},
		{
			"buffer":0,
			"byteLength":384,
			"byteOffset":3688,
			"target":34962
		},
		{
			"buffer":0,
			"byteLength":384,
			"byteOffset":4072,
			"target":34962
		},
		{
			"buffer":0,
			"byteLength":256,
			"byteOffset":4456,
			"target":34962
		},
		{
			"buffer":0,
			"byteLength":432,
			"byteOffset":4712,
			"target":34962
		},
		{
			"buffer":0,
			"byteLength":432,
			"byteOffset":5144,
			"target":34962
		},
		{
			"buffer":0,
			"byteLength":288,
			"byteOffset":5576,
			"target":34962
		},
		{
			"buffer":0,
			"byteLength":432,
			"byteOffset":5864,
			"target":34962
		},
		{
			"buffer":0,
			"byteLength":432,
			"byteOffset":6296,
			"target":34962
		},
		{
			"buffer":0,
			"byteLength":288,
			"byteOffset":6728,
			"target":34962
		},
		{
			"buffer":0,
			"byteLength":384,
			"byteOffset":7016,
			"target":34962
		},
		{
			"buffer":0,
			"byteLength":384,
			"byteOffset":7400,
			"target":34962
		},
		{
			"buffer":0,
			"byteLength":256,
			"byteOffset":7784,
			"target":34962
		},
		{
			"buffer":0,
			"byteLength":384,
			"byteOffset":8040,
			"target":34962
		},
		{
			"buffer":0,
			"byteLength":384,
			"byteOffset":8424,
			"target":34962
		},
		{
			"buffer":0,
			"byteLength":256,
			"byteOffset":8808,
			"target":34962
		},
		{
			"buffer":0,
			"byteLength":432,
			"byteOffset":9064,
			"target":34962
		},
		{
			"buffer":0,
			"byteLength":432,
			"byteOffset":9496,
			"target":34962
		},
		{
			"buffer":0,
			"byteLength":288,
			"byteOffset":9928,
			"target":34962
		},
		{
			"buffer":0,
			"byteLength":432,
			"byteOffset":10216,
			"target":34962
		},
		{
			"buffer":0,
			"byteLength":432,
			"byteOffset":10648,
			"target":34962
		},
		{
			"buffer":0,
			"byteLength":288,
			"byteOffset":11080,
			"target":34962
		},
		{
			"buffer":0,
			"byteLength":384,
			"byteOffset":11368,
			"target":34962
		},
		{
			"buffer":0,
			"byteLength":384,
			"byteOffset":11752,
			"target":34962
		},
		{
			"buffer":0,
			"byteLength":256,
			"byteOffset":12136,
			"target":34962
		},
		{
			"buffer":0,
			"byteLength":384,
			"byteOffset":12392,
			"target":34962
		},
		{
			"buffer":0,
			"byteLength":384,
			"byteOffset":12776,
			"target":34962
		},
		{
			"buffer":0,
			"byteLength":256,
			"byteOffset":13160,
			"target":34962
		},
		{
			"buffer":0,
			"byteLength":816,
			"byteOffset":13416,
			"target":34962
		},
		{
			"buffer":0,
			"byteLength":816,
			"byteOffset":14232,
			"target":34962
		},
		{
			"buffer":0,
			"byteLength":544,
			"byteOffset":15048,
			"target":34962
		},
		{
			"buffer":0,
			"byteLength":264,
			"byteOffset":15592,
			"target":34963
		}
	],
	"buffers":[
		{
			"byteLength":15856,
			"uri":"dragon.bin"
		}
	]
}
